# xmcd
#
# Track frame offsets:
#       150
#       18842
#       39378
#       59532
#       80225
#       99393
#       117974
#       138177
#       154028
#       179007
#       198340
#       218576
#       241238
#       264619
#       284473
#
# Disc length: 4090 seconds
#
# Revision: 1
# Processed by: cddbd v1.4PL0 Copyright (c) Steve Scherf et al.
# Submitted via: MusiCat 1.1
#
DISCID=d20ff80f
DTITLE=Vari - Belly Dancing 101
DYEAR=1900
DGENRE=
TTITLE0=El alem Allah-Amr Diab
TTITLE1=Tamally maak-Amr Diab
TTITLE2=Yameen Allah-Assala
TTITLE3=Aamel Eih-Amr Diab
TTITLE4=Aref leih-Amr Diab
TTITLE5=El layali-Nawal el Zoghbi
TTITLE6=Low can yerdeeek-Amr Diab
TTITLE7=Khalleek fakerny-Amr Diab
TTITLE8=Tetragga feyya-Ihab Tawfik
TTITLE9=Keda eini einak-Amr Diab
TTITLE10=Amarein-Amr Diab
TTITLE11=Ayam we layali-Amer Mounib
TTITLE12=Nour el Ein-Amr Diab
TTITLE13=Wahhdani-Khaled Aggag
TTITLE14=Ana-Amr Diab
EXTD=0\n\n\n
EXTT0=
EXTT1=
EXTT2=
EXTT3=
EXTT4=
EXTT5=
EXTT6=
EXTT7=
EXTT8=
EXTT9=
EXTT10=
EXTT11=
EXTT12=
EXTT13=
EXTT14=
PLAYORDER=
